<?xml version="1.0" encoding="iso-8859-1"?>
<!-- Generator: Adobe Illustrator 18.0.0, SVG Export Plug-In . SVG Version: 6.00 Build 0)  -->
<!DOCTYPE svg PUBLIC "-//W3C//DTD SVG 1.1//EN" "http://www.w3.org/Graphics/SVG/1.1/DTD/svg11.dtd">
<svg version="1.1" id="Capa_1" xmlns="http://www.w3.org/2000/svg" xmlns:xlink="http://www.w3.org/1999/xlink" x="0px" y="0px"
	 viewBox="0 0 58 80" style="enable-background:new 0 0 58 80;" xml:space="preserve">
<g>
	<path d="M56,34.36V32h1c0.553,0,1-0.447,1-1s-0.447-1-1-1h-1h-1H41h-1h-1c-0.553,0-1,0.447-1,1s0.447,1,1,1h1v2.36
		c0,3.534,1.845,6.748,4.827,8.64C41.845,44.892,40,48.105,40,51.64V54h-1c-0.553,0-1,0.447-1,1s0.447,1,1,1h1h14h2h1
		c0.553,0,1-0.447,1-1s-0.447-1-1-1h-1v-2.36c0-3.534-1.845-6.748-4.827-8.64C54.155,41.108,56,37.895,56,34.36z M54,51.64V54H42
		v-2.36c0-3.319,2.033-6.298,5.197-7.64h1.605C51.967,45.342,54,48.32,54,51.64z M48.803,42h-1.605C44.033,40.658,42,37.68,42,34.36
		V32h12v2.36C54,37.68,51.967,40.658,48.803,42z"/>
	<path d="M57,2H1C0.448,2,0,2.447,0,3v44c0,0.553,0.448,1,1,1h36.523c0.536-1.851,1.473-3.551,2.739-5
		C38.199,40.639,37,37.607,37,34.36V27h21V3C58,2.447,57.552,2,57,2z M16,8c3.071,0,5.569,2.498,5.569,5.569
		c0,3.07-2.498,5.568-5.569,5.568s-5.569-2.498-5.569-5.568C10.431,10.498,12.929,8,16,8z M52.737,26.676
		c-0.373,0.406-1.006,0.435-1.413,0.062L40.063,16.414l-9.181,10.054l4.807,4.807c0.391,0.391,0.391,1.023,0,1.414
		s-1.023,0.391-1.414,0L23.974,22.389L7.661,36.751C7.471,36.918,7.235,37,7,37c-0.277,0-0.553-0.114-0.751-0.339
		c-0.365-0.415-0.325-1.047,0.09-1.412l17.017-14.982c0.396-0.348,0.994-0.329,1.368,0.044l4.743,4.743l9.794-10.727
		c0.179-0.196,0.429-0.313,0.694-0.325c0.264-0.006,0.524,0.083,0.72,0.262l12,11C53.083,25.636,53.11,26.269,52.737,26.676z"/>
</g>
<g>
</g>
<g>
</g>
<g>
</g>
<g>
</g>
<g>
</g>
<g>
</g>
<g>
</g>
<g>
</g>
<g>
</g>
<g>
</g>
<g>
</g>
<g>
</g>
<g>
</g>
<g>
</g>
<g>
</g>
</svg>
